<?xml version="1.0" encoding="utf-8"?>
<svg version="1.1" id="Layer_1" xmlns="http://www.w3.org/2000/svg" xmlns:xlink="http://www.w3.org/1999/xlink" x="0px" y="0px"
	 viewBox="0 0 200 200" xml:space="preserve">
<style type="text/css">
	.st0{fill:#D5E9EF;}
	.st1{fill:#48ABC7;}
  .txt1 {font: bold 5px sans-serif; fill: #48ABC7; display:none;}
  .txt2 {font: bold 5px sans-serif; fill: #D5E9EF; display:none;}
  .txt3 {font: bold 5px sans-serif; fill: #48ABC7;}
  .txt4 {font: bold 5px sans-serif; fill: #D5E9EF;}
</style>
<rect class="st0" width="25" height="25"/>
<rect class="st1" x="25"  width="25" height="25"/>
<rect class="st0" x="50"  width="25" height="25"/>
<rect class="st1" x="75"  width="25" height="25"/>
<rect class="st0" x="100"  width="25" height="25"/>
<rect class="st1" x="125"  width="25" height="25"/>
<rect class="st0" x="150"  width="25" height="25"/>
<rect class="st1" x="175"  width="25" height="25"/>

<rect class="st1" x="0"    y="25"  width="25" height="25"/>
<rect class="st0" x="25"   y="25"  width="25" height="25"/>
<rect class="st1" x="50"   y="25"  width="25" height="25"/>
<rect class="st0" x="75"   y="25"  width="25" height="25"/>
<rect class="st1" x="100"  y="25"  width="25" height="25"/>
<rect class="st0" x="125"  y="25"  width="25" height="25"/>
<rect class="st1" x="150"  y="25"  width="25" height="25"/>
<rect class="st0" x="175"  y="25"  width="25" height="25"/>

<rect class="st0" x="0"    y="50"  width="25" height="25"/>
<rect class="st1" x="25"   y="50"  width="25" height="25"/>
<rect class="st0" x="50"   y="50"  width="25" height="25"/>
<rect class="st1" x="75"   y="50"  width="25" height="25"/>
<rect class="st0" x="100"  y="50"  width="25" height="25"/>
<rect class="st1" x="125"  y="50"  width="25" height="25"/>
<rect class="st0" x="150"  y="50"  width="25" height="25"/>
<rect class="st1" x="175"  y="50"  width="25" height="25"/>

<rect class="st1" x="0"    y="75"  width="25" height="25"/>
<rect class="st0" x="25"   y="75"  width="25" height="25"/>
<rect class="st1" x="50"   y="75"  width="25" height="25"/>
<rect class="st0" x="75"   y="75"  width="25" height="25"/>
<rect class="st1" x="100"  y="75"  width="25" height="25"/>
<rect class="st0" x="125"  y="75"  width="25" height="25"/>
<rect class="st1" x="150"  y="75"  width="25" height="25"/>
<rect class="st0" x="175"  y="75"  width="25" height="25"/>

<rect class="st0" x="0"    y="100"  width="25" height="25"/>
<rect class="st1" x="25"   y="100"  width="25" height="25"/>
<rect class="st0" x="50"   y="100"  width="25" height="25"/>
<rect class="st1" x="75"   y="100"  width="25" height="25"/>
<rect class="st0" x="100"  y="100"  width="25" height="25"/>
<rect class="st1" x="125"  y="100"  width="25" height="25"/>
<rect class="st0" x="150"  y="100"  width="25" height="25"/>
<rect class="st1" x="175"  y="100"  width="25" height="25"/>

<rect class="st1" x="0"    y="125"  width="25" height="25"/>
<rect class="st0" x="25"   y="125"  width="25" height="25"/>
<rect class="st1" x="50"   y="125"  width="25" height="25"/>
<rect class="st0" x="75"   y="125"  width="25" height="25"/>
<rect class="st1" x="100"  y="125"  width="25" height="25"/>
<rect class="st0" x="125"  y="125"  width="25" height="25"/>
<rect class="st1" x="150"  y="125"  width="25" height="25"/>
<rect class="st0" x="175"  y="125"  width="25" height="25"/>

<rect class="st0" x="0"    y="150"  width="25" height="25"/>
<rect class="st1" x="25"   y="150"  width="25" height="25"/>
<rect class="st0" x="50"   y="150"  width="25" height="25"/>
<rect class="st1" x="75"   y="150"  width="25" height="25"/>
<rect class="st0" x="100"  y="150"  width="25" height="25"/>
<rect class="st1" x="125"  y="150"  width="25" height="25"/>
<rect class="st0" x="150"  y="150"  width="25" height="25"/>
<rect class="st1" x="175"  y="150"  width="25" height="25"/>

<rect class="st1" x="0"    y="175"  width="25" height="25"/>
<rect class="st0" x="25"   y="175"  width="25" height="25"/>
<rect class="st1" x="50"   y="175"  width="25" height="25"/>
<rect class="st0" x="75"   y="175"  width="25" height="25"/>
<rect class="st1" x="100"  y="175"  width="25" height="25"/>
<rect class="st0" x="125"  y="175"  width="25" height="25"/>
<rect class="st1" x="150"  y="175"  width="25" height="25"/>
<rect class="st0" x="175"  y="175"  width="25" height="25"/>

<text x="1" y="5" class="txt1">8</text>
<text x="1" y="30" class="txt2">7</text>
<text x="1" y="55" class="txt1">6</text>
<text x="1" y="80" class="txt2">5</text>
<text x="1" y="105" class="txt1">4</text>
<text x="1" y="130" class="txt2">3</text>
<text x="1" y="155" class="txt1">2</text>
<text x="1" y="180" class="txt2">1</text>

<text x="21" y="199.5" class="txt2">a</text>
<text x="46" y="199.5" class="txt1">b</text>
<text x="71" y="199.5" class="txt2">c</text>
<text x="96" y="199.5" class="txt1">d</text>
<text x="121" y="199.5" class="txt2">e</text>
<text x="146" y="199.5" class="txt1">f</text>
<text x="171" y="199" class="txt2">g</text>
<text x="196" y="199.5" class="txt1">h</text>

<text x="1" y="5" class="txt3">1</text>
<text x="1" y="30" class="txt4">2</text>
<text x="1" y="55" class="txt3">3</text>
<text x="1" y="80" class="txt4">4</text>
<text x="1" y="105" class="txt3">5</text>
<text x="1" y="130" class="txt4">6</text>
<text x="1" y="155" class="txt3">7</text>
<text x="1" y="180" class="txt4">8</text>

<text x="21" y="199.5" class="txt4">h</text>
<text x="46" y="199" class="txt3">g</text>
<text x="71" y="199.5" class="txt4">f</text>
<text x="96" y="199.5" class="txt3">e</text>
<text x="121" y="199.5" class="txt4">d</text>
<text x="146" y="199.5" class="txt3">c</text>
<text x="171" y="199.5" class="txt4">b</text>
<text x="196" y="199.5" class="txt3">a</text>
</svg>