<?xml version="1.0" encoding="utf-8"?>
<!-- Generator: Adobe Illustrator 25.0.0, SVG Export Plug-In . SVG Version: 6.00 Build 0)  -->
<svg version="1.1" id="Layer_1" xmlns="http://www.w3.org/2000/svg" xmlns:xlink="http://www.w3.org/1999/xlink" x="0px" y="0px"
	 viewBox="0 0 45 45" style="enable-background:new 0 0 45 45;" xml:space="preserve">
<style type="text/css">
	.st0{fill:#FF0000;}
	.st1{fill:none;stroke:#000000;stroke-width:7;stroke-miterlimit:10;}
	.st2{fill:none;stroke:#FF0000;stroke-width:3;stroke-miterlimit:10;}
	.st3{filter:url(#Adobe_OpacityMaskFilter);}
	.st4{fill:#FFFFFF;}
	.st5{mask:url(#SVGID_1_);}
	.st6{fill:#FFFF00;}
</style>
<g>
	<g>
		<g>
			<path class="st0" d="M-143.4,12.5c-0.2,0-0.3-0.1-0.4-0.2c-2-3.6-5-6.5-8.6-8.6c-0.2-0.1-0.3-0.3-0.2-0.5
				c0.1-0.2,0.2-0.4,0.5-0.4h8.7c0.3,0,0.5,0.2,0.5,0.5V12C-142.9,12.3-143,12.4-143.4,12.5L-143.4,12.5z"/>
			<path d="M-143.4,3.4v8.7c-2.1-3.7-5.1-6.7-8.7-8.7L-143.4,3.4 M-143.4,2.6h-8.7c-0.4,0-0.8,0.3-0.8,0.7c-0.1,0.4,0.1,0.8,0.4,1
				c3.5,2,6.4,4.9,8.4,8.4c0.2,0.3,0.5,0.5,0.8,0.5c0.1,0,0.2,0,0.2,0c0.4-0.1,0.7-0.5,0.7-0.8v-9C-142.6,2.9-142.9,2.6-143.4,2.6
				L-143.4,2.6z"/>
		</g>
	</g>
	<g>
		<g>
			<path class="st0" d="M-183.7,12.5c-0.3-0.1-0.4-0.3-0.4-0.5V3.4c0-0.3,0.2-0.5,0.5-0.5h8.7c0.3,0,0.4,0.2,0.5,0.4
				c0.1,0.2,0,0.4-0.2,0.5c-3.6,2.1-6.6,5-8.6,8.6C-183.3,12.4-183.4,12.5-183.7,12.5C-183.6,12.5-183.6,12.5-183.7,12.5z"/>
			<path d="M-183.6,3.4h8.7c-3.6,2-6.6,5-8.7,8.7V3.4 M-183.6,2.6c-0.5,0-0.8,0.4-0.8,0.8v8.8c0,0.4,0.3,0.8,0.7,0.8
				c0,0,0.1,0,0.2,0c0.3,0,0.6-0.2,0.8-0.5c2-3.5,4.9-6.4,8.4-8.4c0.3-0.2,0.5-0.7,0.4-1c-0.1-0.4-0.5-0.7-0.8-0.7h-8.9V2.6z"/>
		</g>
	</g>
	<g>
		<g>
			<path class="st0" d="M-143.3,34.5c0.3,0.1,0.4,0.3,0.4,0.5v8.7c0,0.3-0.2,0.5-0.5,0.5h-8.7c-0.3,0-0.4-0.2-0.5-0.4
				c-0.1-0.2,0-0.4,0.2-0.5c3.6-2.1,6.6-5,8.6-8.6C-143.7,34.6-143.6,34.5-143.3,34.5C-143.4,34.5-143.4,34.5-143.3,34.5z"/>
			<path d="M-143.4,43.6h-8.7c3.6-2,6.6-5,8.7-8.7V43.6 M-143.4,44.4c0.5,0,0.8-0.4,0.8-0.8v-8.8c0-0.4-0.3-0.8-0.7-0.8
				c0,0-0.1,0-0.2,0c-0.3,0-0.6,0.2-0.8,0.5c-2,3.5-4.9,6.4-8.4,8.4c-0.3,0.2-0.5,0.7-0.4,1c0.1,0.4,0.5,0.7,0.8,0.7h8.9V44.4z"/>
		</g>
	</g>
	<g>
		<g>
			<path class="st0" d="M-183.6,34.5c0.2,0,0.3,0.1,0.4,0.2c2,3.6,5,6.5,8.6,8.6c0.2,0.1,0.3,0.3,0.2,0.5c-0.1,0.2-0.2,0.4-0.5,0.4
				h-8.7c-0.3,0-0.5-0.2-0.5-0.5V35C-184.1,34.7-184,34.6-183.6,34.5L-183.6,34.5z"/>
			<path d="M-183.6,43.6v-8.7c2.1,3.7,5.1,6.7,8.7,8.7H-183.6 M-183.6,44.4h8.7c0.4,0,0.8-0.3,0.8-0.7c0.1-0.4-0.1-0.8-0.4-1
				c-3.5-2-6.4-4.9-8.4-8.4c-0.2-0.3-0.5-0.5-0.8-0.5c-0.1,0-0.2,0-0.2,0c-0.4,0.1-0.7,0.5-0.7,0.8v8.8
				C-184.4,44.1-184.1,44.4-183.6,44.4L-183.6,44.4z"/>
		</g>
	</g>
</g>
<g>
	<g>
		<g>
			<polygon class="st0" points="-124.3,-9.1 -129.5,-14.3 -129.5,-21.5 -125.5,-21.5 -125.5,-16 -122.6,-13.1 -117.3,-13.1 
				-117.3,-9.1 			"/>
			<path d="M-126-21v5.3l3.2,3.2h5v3h-6.3l-4.9-4.9V-21H-126 M-125-22h-1h-3h-1v1v6.5v0.4l0.3,0.3l4.9,4.9l0.3,0.3h0.4h6.3h1v-1v-3
				v-1h-1h-4.6l-2.6-2.6V-21V-22L-125-22z"/>
		</g>
	</g>
	<g>
		<g>
			<polygon class="st0" points="-100,-9.1 -100,-13.1 -94.7,-13.1 -91.8,-16 -91.8,-21.5 -87.8,-21.5 -87.8,-14.3 -93,-9.1 			"/>
			<path d="M-88.3-21v6.5l-4.9,4.9h-6.3v-3h5l3.2-3.2V-21H-88.3 M-87.3-22h-1h-3h-1v1v4.9l-2.6,2.6h-4.6h-1v1v3v1h1h6.3h0.4l0.3-0.3
				l4.9-4.9l0.3-0.3v-0.4V-21V-22L-87.3-22z"/>
		</g>
	</g>
	<g>
		<g>
			<polygon class="st0" points="-129.5,-38 -129.5,-45.3 -124.3,-50.5 -117.3,-50.5 -117.3,-46.5 -122.6,-46.5 -125.5,-43.6 
				-125.5,-38 			"/>
			<path d="M-117.8-50v3h-5l-3.2,3.2v5.3h-3V-45l4.9-4.9H-117.8 M-116.8-51h-1h-6.3h-0.4l-0.3,0.3l-4.9,4.9l-0.3,0.3v0.4v6.5v1h1h3
				h1v-1v-4.9l2.6-2.6h4.6h1v-1v-3V-51L-116.8-51z"/>
		</g>
	</g>
	<g>
		<g>
			<polygon class="st0" points="-91.8,-38 -91.8,-43.6 -94.7,-46.5 -100,-46.5 -100,-50.5 -93,-50.5 -87.8,-45.3 -87.8,-38 			"/>
			<path d="M-93.2-50l4.9,4.9v6.5h-3v-5.3l-3.2-3.2h-5v-3H-93.2 M-92.8-51h-0.4h-6.3h-1v1v3v1h1h4.6l2.6,2.6v4.9v1h1h3h1v-1V-45
				v-0.4l-0.3-0.3l-4.9-4.9L-92.8-51L-92.8-51z"/>
		</g>
	</g>
</g>
<g>
	<polyline class="st1" points="-138.5,89.9 -138.5,95.8 -134.4,99.9 -128.8,99.9 	"/>
	<polyline class="st1" points="-100.8,89.9 -100.8,95.8 -104.8,99.9 -110.5,99.9 	"/>
	<polyline class="st1" points="-138.5,72.4 -138.5,66.5 -134.4,62.5 -128.8,62.5 	"/>
	<polyline class="st1" points="-100.8,72.4 -100.8,66.5 -104.8,62.5 -110.5,62.5 	"/>
</g>
<g>
	<polyline class="st2" points="-138.5,89.9 -138.5,95.8 -134.4,99.9 -128.8,99.9 	"/>
	<polyline class="st2" points="-100.8,89.9 -100.8,95.8 -104.8,99.9 -110.5,99.9 	"/>
	<polyline class="st2" points="-138.5,72.4 -138.5,66.5 -134.4,62.5 -128.8,62.5 	"/>
	<polyline class="st2" points="-100.8,72.4 -100.8,66.5 -104.8,62.5 -110.5,62.5 	"/>
</g>
<defs>
	<filter id="Adobe_OpacityMaskFilter" filterUnits="userSpaceOnUse" x="1" y="1" width="43" height="43">
		<feColorMatrix  type="matrix" values="1 0 0 0 0  0 1 0 0 0  0 0 1 0 0  0 0 0 1 0"/>
	</filter>
</defs>
<mask maskUnits="userSpaceOnUse" x="1" y="1" width="43" height="43" id="SVGID_1_">
	<g class="st3">
		<rect x="-7.9" y="-11.3" class="st4" width="87" height="75.4"/>
		<g>
			<rect x="11.9" y="-7.4" width="21.3" height="59.3"/>
		</g>
		<g>
			<rect x="-7.2" y="11.9" width="59.3" height="21.3"/>
		</g>
	</g>
</mask>
<g class="st5">
	<path class="st6" d="M41.1,3.9v37.3H3.9V3.9H41.1 M44,1H1v43h43V1L44,1z"/>
</g>
</svg>
