<?xml version="1.0" encoding="utf-8"?>
<!-- Generator: Adobe Illustrator 25.0.0, SVG Export Plug-In . SVG Version: 6.00 Build 0)  -->
<svg version="1.1" id="Layer_1" xmlns="http://www.w3.org/2000/svg" xmlns:xlink="http://www.w3.org/1999/xlink" x="0px" y="0px"
	 viewBox="0 0 45 45" style="enable-background:new 0 0 45 45;" xml:space="preserve">
<style type="text/css">
	.st0{opacity:0.33;}
	.st1{fill:none;stroke:#000000;stroke-width:0.25;stroke-miterlimit:10;}
</style>
<g class="st0">
	<line class="st1" x1="-56.7" y1="52.1" x2="0.6" y2="-5.2"/>
	<line class="st1" x1="-54.9" y1="52.1" x2="2.4" y2="-5.2"/>
	<line class="st1" x1="-53.1" y1="52.1" x2="4.2" y2="-5.2"/>
	<line class="st1" x1="-51.4" y1="52.1" x2="5.9" y2="-5.2"/>
	<line class="st1" x1="-49.6" y1="52.1" x2="7.7" y2="-5.2"/>
	<line class="st1" x1="-47.9" y1="52.1" x2="9.4" y2="-5.2"/>
	<line class="st1" x1="-46.1" y1="52.1" x2="11.2" y2="-5.2"/>
	<line class="st1" x1="-44.4" y1="52.1" x2="12.9" y2="-5.2"/>
	<line class="st1" x1="-42.6" y1="52.1" x2="14.7" y2="-5.2"/>
	<line class="st1" x1="-40.8" y1="52.1" x2="16.5" y2="-5.2"/>
	<line class="st1" x1="-39.1" y1="52.1" x2="18.2" y2="-5.2"/>
	<line class="st1" x1="-37.3" y1="52.1" x2="20" y2="-5.2"/>
	<line class="st1" x1="-35.6" y1="52.1" x2="21.7" y2="-5.2"/>
	<line class="st1" x1="-33.8" y1="52.1" x2="23.5" y2="-5.2"/>
	<line class="st1" x1="-32.1" y1="52.1" x2="25.2" y2="-5.2"/>
	<line class="st1" x1="-30.3" y1="52.1" x2="27" y2="-5.2"/>
	<line class="st1" x1="-28.6" y1="52.1" x2="28.8" y2="-5.2"/>
	<line class="st1" x1="-26.8" y1="52.1" x2="30.5" y2="-5.2"/>
	<line class="st1" x1="-25" y1="52.1" x2="32.3" y2="-5.2"/>
	<line class="st1" x1="-23.3" y1="52.1" x2="34" y2="-5.2"/>
	<line class="st1" x1="-21.5" y1="52.1" x2="35.8" y2="-5.2"/>
	<line class="st1" x1="-19.8" y1="52.1" x2="37.5" y2="-5.2"/>
	<line class="st1" x1="-18" y1="52.1" x2="39.3" y2="-5.2"/>
	<line class="st1" x1="-16.3" y1="52.1" x2="41" y2="-5.2"/>
	<line class="st1" x1="-14.5" y1="52.1" x2="42.8" y2="-5.2"/>
	<line class="st1" x1="-12.7" y1="52.1" x2="44.6" y2="-5.2"/>
	<line class="st1" x1="-11" y1="52.1" x2="46.3" y2="-5.2"/>
	<line class="st1" x1="-9.2" y1="52.1" x2="48.1" y2="-5.2"/>
	<line class="st1" x1="-7.5" y1="52.1" x2="49.8" y2="-5.2"/>
	<line class="st1" x1="-5.7" y1="52.1" x2="51.6" y2="-5.2"/>
	<line class="st1" x1="-4" y1="52.1" x2="53.3" y2="-5.2"/>
	<line class="st1" x1="-2.2" y1="52.1" x2="55.1" y2="-5.2"/>
	<line class="st1" x1="-0.4" y1="52.1" x2="56.9" y2="-5.2"/>
	<line class="st1" x1="1.3" y1="52.1" x2="58.6" y2="-5.2"/>
	<line class="st1" x1="3.1" y1="52.1" x2="60.4" y2="-5.2"/>
	<line class="st1" x1="4.8" y1="52.1" x2="62.1" y2="-5.2"/>
	<line class="st1" x1="6.6" y1="52.1" x2="63.9" y2="-5.2"/>
	<line class="st1" x1="8.3" y1="52.1" x2="65.6" y2="-5.2"/>
	<line class="st1" x1="10.1" y1="52.1" x2="67.4" y2="-5.2"/>
	<line class="st1" x1="11.9" y1="52.1" x2="69.2" y2="-5.2"/>
	<line class="st1" x1="13.6" y1="52.1" x2="70.9" y2="-5.2"/>
	<line class="st1" x1="15.4" y1="52.1" x2="72.7" y2="-5.2"/>
	<line class="st1" x1="17.1" y1="52.1" x2="74.4" y2="-5.2"/>
	<line class="st1" x1="18.9" y1="52.1" x2="76.2" y2="-5.2"/>
	<line class="st1" x1="20.6" y1="52.1" x2="77.9" y2="-5.2"/>
	<line class="st1" x1="22.4" y1="52.1" x2="79.7" y2="-5.2"/>
	<line class="st1" x1="24.2" y1="52.1" x2="81.5" y2="-5.2"/>
	<line class="st1" x1="25.9" y1="52.1" x2="83.2" y2="-5.2"/>
	<line class="st1" x1="27.7" y1="52.1" x2="85" y2="-5.2"/>
	<line class="st1" x1="29.4" y1="52.1" x2="86.7" y2="-5.2"/>
	<line class="st1" x1="31.2" y1="52.1" x2="88.5" y2="-5.2"/>
	<line class="st1" x1="32.9" y1="52.1" x2="90.2" y2="-5.2"/>
	<line class="st1" x1="34.7" y1="52.1" x2="92" y2="-5.2"/>
	<line class="st1" x1="36.4" y1="52.1" x2="93.8" y2="-5.2"/>
	<line class="st1" x1="38.2" y1="52.1" x2="95.5" y2="-5.2"/>
	<line class="st1" x1="40" y1="52.1" x2="97.3" y2="-5.2"/>
	<line class="st1" x1="41.7" y1="52.1" x2="99" y2="-5.2"/>
</g>
</svg>
