<?xml version="1.0" encoding="utf-8"?>
<!-- Generator: Adobe Illustrator 25.0.0, SVG Export Plug-In . SVG Version: 6.00 Build 0)  -->
<svg version="1.1" id="Layer_1" xmlns="http://www.w3.org/2000/svg" xmlns:xlink="http://www.w3.org/1999/xlink" x="0px" y="0px"
	 viewBox="0 0 45 45" style="enable-background:new 0 0 45 45;" xml:space="preserve">
<style type="text/css">
	.st0{opacity:0.22;}
</style>
<path class="st0" d="M0.4,9.6C0.1,9.5,0,9.3,0,9.1V0.5C0,0.2,0.2,0,0.5,0h8.7c0.3,0,0.4,0.2,0.5,0.4s0,0.4-0.2,0.5
	C5.9,3,2.9,5.9,0.9,9.5C0.8,9.5,0.7,9.6,0.4,9.6C0.5,9.6,0.5,9.6,0.4,9.6z"/>
<path class="st0" d="M0.4,35.4c0.3,0,0.4,0.1,0.5,0.1c2,3.6,5,6.5,8.6,8.6c0.2,0.1,0.3,0.3,0.2,0.5C9.6,44.8,9.5,45,9.2,45H0.5
	C0.2,45,0,44.8,0,44.5v-8.6C0,35.7,0.1,35.5,0.4,35.4C0.5,35.4,0.5,35.4,0.4,35.4z"/>
<path class="st0" d="M44.6,9.6c-0.3,0-0.4-0.1-0.5-0.1c-2-3.6-5-6.5-8.6-8.6c-0.2-0.1-0.3-0.3-0.2-0.5S35.5,0,35.8,0l8.7,0
	C44.8,0,45,0.2,45,0.5v8.6C45,9.3,44.9,9.5,44.6,9.6C44.5,9.6,44.5,9.6,44.6,9.6z"/>
<path class="st0" d="M44.6,35.4c0.3,0.1,0.4,0.3,0.4,0.5v8.6c0,0.3-0.2,0.5-0.5,0.5h-8.7c-0.3,0-0.4-0.2-0.5-0.4
	c-0.1-0.2,0-0.4,0.2-0.5c3.6-2.1,6.6-5,8.6-8.6C44.2,35.5,44.3,35.4,44.6,35.4C44.5,35.4,44.5,35.4,44.6,35.4z"/>
</svg>
