<?xml version="1.0" encoding="UTF-8" standalone="no"?>
<svg
   viewBox="3 3 16 16"
   version="1.1"
   id="svg4773"
   sodipodi:docname="wrong.svg"
   inkscape:version="1.2.2 (732a01da63, 2022-12-09, custom)"
   xmlns:inkscape="http://www.inkscape.org/namespaces/inkscape"
   xmlns:sodipodi="http://sodipodi.sourceforge.net/DTD/sodipodi-0.dtd"
   xmlns:xlink="http://www.w3.org/1999/xlink"
   xmlns="http://www.w3.org/2000/svg"
   xmlns:svg="http://www.w3.org/2000/svg">
  <sodipodi:namedview
     id="namedview4775"
     pagecolor="#ffffff"
     bordercolor="#000000"
     borderopacity="0.25"
     inkscape:showpageshadow="2"
     inkscape:pageopacity="0.0"
     inkscape:pagecheckerboard="0"
     inkscape:deskcolor="#d1d1d1"
     showgrid="false"
     inkscape:zoom="38"
     inkscape:cx="8"
     inkscape:cy="8.0131579"
     inkscape:window-width="1526"
     inkscape:window-height="836"
     inkscape:window-x="0"
     inkscape:window-y="0"
     inkscape:window-maximized="1"
     inkscape:current-layer="g4771" />
  <defs
     id="defs4765">
    <linearGradient
       gradientUnits="userSpaceOnUse"
       y2="-2.623"
       x2="0"
       y1="986.67"
       id="linearGradient4756">
      <stop
         stop-color="#ffce3b"
         id="stop4752" />
      <stop
         offset="1"
         stop-color="#ffd762"
         id="stop4754" />
    </linearGradient>
    <linearGradient
       id="0"
       gradientUnits="userSpaceOnUse"
       y1="986.67"
       x2="0"
       y2="-2.623">
      <stop
         stop-color="#ffce3b"
         id="stop4758" />
      <stop
         offset="1"
         stop-color="#fef4ab"
         id="stop4760" />
    </linearGradient>
    <linearGradient
       gradientUnits="userSpaceOnUse"
       x2="1"
       x1="0"
       xlink:href="#0"
       id="linearGradient4763" />
  </defs>
  <g
     transform="matrix(2 0 0 2-11-2071.72)"
     id="g4771">
    <path
       transform="translate(7 1037.36)"
       d="m4 0c-2.216 0-4 1.784-4 4 0 2.216 1.784 4 4 4 2.216 0 4-1.784 4-4 0-2.216-1.784-4-4-4"
       fill="red"
       id="path4767" />
    <path
       d="m 11.72064,1041.36 0.778857,-0.7789 c 0.04956,-0.049 0.07395,-0.1094 0.07395,-0.1802 0,-0.071 -0.02439,-0.1306 -0.07395,-0.1801 l -0.36032,-0.3603 c -0.04956,-0.049 -0.109355,-0.074 -0.18016,-0.074 -0.07081,0 -0.130596,0.024 -0.18016,0.074 l -0.778856,0.7788 -0.778857,-0.7788 c -0.04956,-0.049 -0.109354,-0.074 -0.18016,-0.074 -0.070805,0 -0.1305958,0.024 -0.1801594,0.074 l -0.3603196,0.3603 c -0.049564,0.05 -0.073952,0.1093 -0.073952,0.1801 0,0.071 0.024388,0.1306 0.073952,0.1802 l 0.778857,0.7789 -0.778857,0.7788 c -0.049564,0.049 -0.073952,0.1094 -0.073952,0.1802 0,0.071 0.024388,0.1306 0.073952,0.1801 l 0.3603196,0.3604 c 0.049564,0.05 0.1093546,0.074 0.1801594,0.074 0.07081,0 0.130597,-0.024 0.18016,-0.074 l 0.778857,-0.7789 0.778856,0.7789 c 0.04956,0.05 0.109355,0.074 0.18016,0.074 0.07081,0 0.130596,-0.024 0.18016,-0.074 l 0.36032,-0.3604 c 0.04956,-0.049 0.07395,-0.1093 0.07395,-0.1801 0,-0.071 -0.02439,-0.1306 -0.07395,-0.1802 L 11.72064,1041.36"
       fill="#ffffff"
       id="path4769"
       style="stroke-width:0.786724" />
  </g>
</svg>
