<?xml version="1.0" encoding="UTF-8" standalone="no"?>
<svg
   viewBox="3 3 16 16"
   version="1.1"
   id="svg4773"
   sodipodi:docname="wrong.svg"
   inkscape:version="1.2.2 (732a01da63, 2022-12-09, custom)"
   xmlns:inkscape="http://www.inkscape.org/namespaces/inkscape"
   xmlns:sodipodi="http://sodipodi.sourceforge.net/DTD/sodipodi-0.dtd"
   xmlns:xlink="http://www.w3.org/1999/xlink"
   xmlns="http://www.w3.org/2000/svg"
   xmlns:svg="http://www.w3.org/2000/svg">
  <sodipodi:namedview
     id="namedview4775"
     pagecolor="#ffffff"
     bordercolor="#000000"
     borderopacity="0.25"
     inkscape:showpageshadow="2"
     inkscape:pageopacity="0.0"
     inkscape:pagecheckerboard="0"
     inkscape:deskcolor="#d1d1d1"
     showgrid="false"
     inkscape:zoom="38"
     inkscape:cx="8.0394737"
     inkscape:cy="8.0657895"
     inkscape:window-width="1526"
     inkscape:window-height="836"
     inkscape:window-x="0"
     inkscape:window-y="0"
     inkscape:window-maximized="1"
     inkscape:current-layer="g4771" />
  <defs
     id="defs4765">
    <linearGradient
       gradientUnits="userSpaceOnUse"
       y2="-2.623"
       x2="0"
       y1="986.67"
       id="linearGradient4756">
      <stop
         stop-color="#ffce3b"
         id="stop4752" />
      <stop
         offset="1"
         stop-color="#ffd762"
         id="stop4754" />
    </linearGradient>
    <linearGradient
       id="0"
       gradientUnits="userSpaceOnUse"
       y1="986.67"
       x2="0"
       y2="-2.623">
      <stop
         stop-color="#ffce3b"
         id="stop4758" />
      <stop
         offset="1"
         stop-color="#fef4ab"
         id="stop4760" />
    </linearGradient>
    <linearGradient
       gradientUnits="userSpaceOnUse"
       x2="1"
       x1="0"
       xlink:href="#0"
       id="linearGradient4763" />
  </defs>
  <g
     transform="matrix(2 0 0 2-11-2071.72)"
     id="g4771">
    <path
       transform="translate(7 1037.36)"
       d="m4 0c-2.216 0-4 1.784-4 4 0 2.216 1.784 4 4 4 2.216 0 4-1.784 4-4 0-2.216-1.784-4-4-4"
       fill="red"
       id="path4767" />
    <path
       d="m 11.75555,1041.36 0.816586,-0.8167 c 0.05196,-0.051 0.07753,-0.1147 0.07753,-0.1889 0,-0.074 -0.02557,-0.1369 -0.07753,-0.1888 l -0.377774,-0.3778 c -0.05196,-0.051 -0.114653,-0.078 -0.188887,-0.078 -0.07424,0 -0.136923,0.025 -0.188888,0.078 l -0.816585,0.8166 -0.816586,-0.8166 c -0.05196,-0.051 -0.114652,-0.078 -0.1888873,-0.078 -0.074235,0 -0.1369221,0.025 -0.1888867,0.078 l -0.3777741,0.3778 c -0.051965,0.052 -0.077534,0.1146 -0.077534,0.1888 0,0.074 0.025569,0.1369 0.077534,0.1889 l 0.8165861,0.8167 -0.8165861,0.8165 c -0.051965,0.051 -0.077534,0.1147 -0.077534,0.1889 0,0.075 0.025569,0.137 0.077534,0.1889 l 0.3777741,0.3778 c 0.051965,0.052 0.114652,0.078 0.1888867,0.078 0.074241,0 0.1369233,-0.025 0.1888873,-0.078 l 0.816586,-0.8166 0.816585,0.8166 c 0.05196,0.052 0.114653,0.078 0.188888,0.078 0.07424,0 0.136922,-0.025 0.188887,-0.078 l 0.377774,-0.3778 c 0.05196,-0.051 0.07753,-0.1146 0.07753,-0.1889 0,-0.074 -0.02557,-0.1369 -0.07753,-0.1889 L 11.75555,1041.36"
       fill="#ffffff"
       id="path4769"
       style="stroke-width:0.824834" />
  </g>
</svg>
